<svg xmlns="http://www.w3.org/2000/svg" xmlns:xlink="http://www.w3.org/1999/xlink" width="500" zoomAndPan="magnify" viewBox="0 0 375 374.999991" height="500" preserveAspectRatio="xMidYMid meet" version="1.0"><rect x="-37.5" width="450" fill="#ffffff" y="-37.499999" height="449.999989" fill-opacity="1"/><rect x="-37.5" width="450" fill="#001433" y="-37.499999" height="449.999989" fill-opacity="1"/><path fill="#ffffff" d="M 168.941406 54.640625 C 105.332031 61.691406 53.5 113.019531 45.824219 176.527344 C 45.578125 178.523438 45.371094 180.519531 45.207031 182.523438 C 45.046875 184.523438 44.925781 186.53125 44.851562 188.539062 C 44.773438 190.546875 44.738281 192.554688 44.75 194.5625 C 44.757812 196.570312 44.8125 198.578125 44.90625 200.585938 C 45.003906 202.59375 45.140625 204.597656 45.324219 206.597656 C 45.503906 208.597656 45.726562 210.59375 45.996094 212.585938 C 46.261719 214.578125 46.570312 216.5625 46.921875 218.542969 C 47.277344 220.519531 47.671875 222.488281 48.105469 224.449219 C 48.542969 226.410156 49.019531 228.363281 49.542969 230.300781 C 50.0625 232.242188 50.621094 234.171875 51.226562 236.089844 C 51.828125 238.003906 52.472656 239.90625 53.15625 241.796875 C 53.839844 243.6875 54.5625 245.558594 55.328125 247.417969 C 56.09375 249.277344 56.898438 251.117188 57.742188 252.941406 C 58.585938 254.761719 59.464844 256.566406 60.386719 258.355469 C 61.308594 260.140625 62.265625 261.90625 63.261719 263.648438 C 64.257812 265.394531 65.292969 267.117188 66.363281 268.816406 C 67.433594 270.515625 68.539062 272.195312 69.679688 273.847656 C 70.824219 275.5 72 277.128906 73.210938 278.730469 C 74.425781 280.332031 75.671875 281.910156 76.949219 283.457031 C 78.230469 285.007812 79.539062 286.527344 80.886719 288.019531 C 82.230469 289.511719 83.605469 290.976562 85.011719 292.410156 C 86.421875 293.84375 87.859375 295.246094 89.324219 296.621094 C 90.792969 297.992188 92.289062 299.332031 93.8125 300.640625 C 95.339844 301.949219 96.890625 303.222656 98.46875 304.464844 C 100.050781 305.707031 101.65625 306.914062 103.285156 308.085938 C 104.917969 309.261719 106.574219 310.398438 108.253906 311.5 C 109.933594 312.601562 111.636719 313.667969 113.363281 314.695312 C 115.085938 315.726562 116.835938 316.71875 118.601562 317.671875 C 120.371094 318.625 122.160156 319.539062 123.964844 320.417969 C 125.773438 321.296875 127.597656 322.132812 129.441406 322.933594 C 131.285156 323.734375 133.144531 324.492188 135.019531 325.210938 C 136.898438 325.929688 138.785156 326.609375 140.691406 327.25 C 147.710938 328.371094 149.957031 324.023438 149.957031 320.238281 L 149.957031 296.527344 C 111.101562 304.96875 102.832031 277.738281 102.832031 277.738281 C 96.394531 261.464844 87.261719 257.117188 87.261719 257.117188 C 74.492188 248.417969 88.253906 248.707031 88.253906 248.707031 C 102.273438 249.699219 109.710938 263.152344 109.710938 263.152344 C 121.914062 284.472656 142.527344 278.15625 150.523438 274.789062 C 151.785156 265.675781 155.488281 259.5 159.359375 255.996094 C 128.171875 252.488281 95.53125 240.425781 95.53125 186.992188 C 95.53125 171.425781 100.863281 158.941406 109.980469 148.984375 C 108.578125 145.476562 103.664062 130.890625 111.378906 111.957031 C 111.378906 111.957031 123.167969 108.164062 149.957031 126.265625 C 155.671875 124.726562 161.464844 123.566406 167.335938 122.792969 C 173.203125 122.015625 179.097656 121.628906 185.019531 121.628906 C 190.9375 121.628906 196.832031 122.015625 202.699219 122.792969 C 208.570312 123.566406 214.363281 124.726562 220.078125 126.265625 C 246.890625 108.164062 258.65625 111.957031 258.65625 111.957031 C 266.359375 130.890625 261.457031 145.476562 260.054688 148.984375 C 269.171875 158.914062 274.503906 171.425781 274.503906 186.992188 C 274.503906 240.5625 241.675781 252.351562 210.40625 255.855469 C 215.453125 260.203125 220.078125 268.761719 220.078125 281.800781 L 220.078125 320.238281 C 220.078125 324.023438 222.324219 328.511719 229.480469 327.25 C 231.515625 326.566406 233.53125 325.839844 235.53125 325.066406 C 237.53125 324.292969 239.511719 323.472656 241.476562 322.609375 C 243.4375 321.746094 245.378906 320.835938 247.300781 319.882812 C 249.21875 318.929688 251.117188 317.933594 252.992188 316.890625 C 254.867188 315.851562 256.71875 314.769531 258.542969 313.644531 C 260.371094 312.519531 262.167969 311.351562 263.941406 310.144531 C 265.710938 308.9375 267.457031 307.6875 269.171875 306.402344 C 270.882812 305.113281 272.570312 303.789062 274.222656 302.421875 C 275.878906 301.058594 277.5 299.65625 279.089844 298.21875 C 280.679688 296.777344 282.234375 295.304688 283.757812 293.792969 C 285.277344 292.285156 286.765625 290.738281 288.21875 289.160156 C 289.667969 287.582031 291.082031 285.972656 292.460938 284.328125 C 293.839844 282.683594 295.179688 281.011719 296.480469 279.308594 C 297.78125 277.601562 299.042969 275.867188 300.261719 274.105469 C 301.484375 272.34375 302.664062 270.554688 303.804688 268.738281 C 304.945312 266.921875 306.042969 265.078125 307.097656 263.214844 C 308.152344 261.347656 309.164062 259.457031 310.132812 257.542969 C 311.101562 255.628906 312.023438 253.695312 312.90625 251.742188 C 313.785156 249.785156 314.621094 247.8125 315.410156 245.816406 C 316.199219 243.824219 316.941406 241.8125 317.640625 239.785156 C 318.335938 237.757812 318.988281 235.714844 319.589844 233.65625 C 320.195312 231.597656 320.75 229.527344 321.257812 227.445312 C 321.769531 225.363281 322.230469 223.269531 322.640625 221.164062 C 323.054688 219.0625 323.417969 216.949219 323.734375 214.828125 C 324.050781 212.707031 324.320312 210.578125 324.539062 208.445312 C 324.757812 206.3125 324.925781 204.175781 325.046875 202.035156 C 325.167969 199.894531 325.238281 197.75 325.261719 195.609375 C 325.285156 193.464844 325.257812 191.320312 325.183594 189.175781 C 325.105469 187.035156 324.980469 184.894531 324.808594 182.757812 C 324.632812 180.621094 324.410156 178.488281 324.140625 176.359375 C 323.871094 174.234375 323.550781 172.113281 323.179688 170 C 322.8125 167.886719 322.394531 165.785156 321.929688 163.691406 C 321.464844 161.597656 320.953125 159.515625 320.394531 157.449219 C 319.832031 155.378906 319.226562 153.320312 318.570312 151.28125 C 317.917969 149.238281 317.214844 147.210938 316.46875 145.203125 C 315.722656 143.191406 314.929688 141.199219 314.089844 139.226562 C 313.25 137.253906 312.367188 135.300781 311.4375 133.367188 C 310.511719 131.433594 309.539062 129.523438 308.523438 127.632812 C 307.507812 125.746094 306.449219 123.882812 305.347656 122.042969 C 304.246094 120.203125 303.105469 118.386719 301.921875 116.601562 C 300.738281 114.8125 299.511719 113.050781 298.246094 111.320312 C 296.984375 109.589844 295.679688 107.886719 294.335938 106.214844 C 292.992188 104.542969 291.613281 102.902344 290.195312 101.296875 C 288.777344 99.6875 287.324219 98.109375 285.832031 96.570312 C 284.34375 95.027344 282.820312 93.519531 281.257812 92.046875 C 279.699219 90.574219 278.109375 89.140625 276.484375 87.742188 C 274.859375 86.34375 273.203125 84.980469 271.515625 83.65625 C 269.828125 82.332031 268.109375 81.050781 266.363281 79.804688 C 264.617188 78.5625 262.84375 77.355469 261.042969 76.195312 C 259.242188 75.03125 257.414062 73.910156 255.5625 72.828125 C 253.710938 71.75 251.832031 70.710938 249.933594 69.71875 C 248.035156 68.726562 246.113281 67.777344 244.167969 66.871094 C 242.222656 65.964844 240.261719 65.105469 238.277344 64.289062 C 236.292969 63.472656 234.292969 62.703125 232.273438 61.980469 C 230.257812 61.253906 228.222656 60.578125 226.171875 59.945312 C 224.125 59.316406 222.0625 58.730469 219.984375 58.195312 C 217.910156 57.660156 215.820312 57.171875 213.722656 56.730469 C 211.625 56.289062 209.515625 55.898438 207.398438 55.554688 C 205.285156 55.210938 203.160156 54.914062 201.03125 54.667969 C 198.898438 54.421875 196.765625 54.222656 194.625 54.074219 C 192.488281 53.925781 190.347656 53.824219 188.203125 53.773438 C 186.058594 53.722656 183.914062 53.722656 181.769531 53.769531 C 179.628906 53.816406 177.484375 53.914062 175.347656 54.058594 C 173.207031 54.203125 171.070312 54.398438 168.941406 54.640625 Z M 168.941406 54.640625 " fill-opacity="1" fill-rule="nonzero"/></svg>