<svg xmlns="http://www.w3.org/2000/svg" xmlns:xlink="http://www.w3.org/1999/xlink" width="500" zoomAndPan="magnify" viewBox="0 0 375 374.999991" height="500" preserveAspectRatio="xMidYMid meet" version="1.0"><defs><clipPath id="02c47d4cc8"><path d="M 37.5 37.5 L 337.5 37.5 L 337.5 337.5 L 37.5 337.5 Z M 37.5 37.5 " clip-rule="nonzero"/></clipPath></defs><rect x="-37.5" width="450" fill="#ffffff" y="-37.499999" height="449.999989" fill-opacity="1"/><rect x="-37.5" width="450" fill="#001433" y="-37.499999" height="449.999989" fill-opacity="1"/><g clip-path="url(#02c47d4cc8)"><path fill="#ffffff" d="M 187.488281 64.515625 C 227.539062 64.515625 232.28125 64.671875 248.097656 65.390625 C 262.722656 66.054688 270.664062 68.5 275.949219 70.554688 C 282.953125 73.277344 287.945312 76.527344 293.195312 81.773438 C 298.445312 87.023438 301.695312 92.019531 304.414062 99.019531 C 306.46875 104.304688 308.910156 112.25 309.582031 126.875 C 310.304688 142.691406 310.453125 147.433594 310.453125 187.484375 C 310.453125 227.53125 310.300781 232.277344 309.582031 248.09375 C 308.914062 262.71875 306.46875 270.660156 304.414062 275.949219 C 301.695312 282.949219 298.445312 287.945312 293.195312 293.195312 C 287.945312 298.445312 282.953125 301.691406 275.949219 304.414062 C 270.664062 306.46875 262.722656 308.910156 248.097656 309.578125 C 232.285156 310.300781 227.539062 310.453125 187.488281 310.453125 C 147.433594 310.453125 142.691406 310.296875 126.875 309.578125 C 112.25 308.910156 104.3125 306.46875 99.023438 304.414062 C 92.023438 301.691406 87.027344 298.441406 81.777344 293.195312 C 76.53125 287.945312 73.277344 282.949219 70.558594 275.949219 C 68.503906 270.664062 66.0625 262.71875 65.394531 248.09375 C 64.671875 232.277344 64.519531 227.53125 64.519531 187.484375 C 64.519531 147.433594 64.671875 142.691406 65.394531 126.875 C 66.058594 112.25 68.503906 104.308594 70.558594 99.019531 C 73.277344 92.019531 76.53125 87.023438 81.777344 81.773438 C 87.027344 76.523438 92.023438 73.277344 99.023438 70.554688 C 104.308594 68.5 112.25 66.058594 126.875 65.390625 C 142.691406 64.671875 147.433594 64.515625 187.488281 64.515625 M 187.488281 37.492188 C 146.75 37.492188 141.640625 37.664062 125.644531 38.394531 C 109.679688 39.121094 98.777344 41.660156 89.234375 45.367188 C 79.371094 49.199219 71.007812 54.328125 62.667969 62.667969 C 54.328125 71.007812 49.199219 79.371094 45.367188 89.234375 C 41.660156 98.777344 39.125 109.679688 38.394531 125.644531 C 37.664062 141.644531 37.492188 146.75 37.492188 187.488281 C 37.492188 228.222656 37.664062 233.332031 38.394531 249.328125 C 39.121094 265.292969 41.660156 276.195312 45.367188 285.738281 C 49.199219 295.601562 54.328125 303.96875 62.667969 312.304688 C 71.007812 320.644531 79.371094 325.773438 89.234375 329.605469 C 98.777344 333.3125 109.679688 335.847656 125.644531 336.578125 C 141.644531 337.308594 146.75 337.480469 187.488281 337.480469 C 228.222656 337.480469 233.332031 337.308594 249.328125 336.578125 C 265.292969 335.851562 276.195312 333.3125 285.738281 329.605469 C 295.601562 325.773438 303.96875 320.644531 312.304688 312.304688 C 320.644531 303.96875 325.773438 295.605469 329.605469 285.738281 C 333.3125 276.195312 335.847656 265.292969 336.578125 249.328125 C 337.308594 233.328125 337.480469 228.222656 337.480469 187.488281 C 337.480469 146.75 337.308594 141.640625 336.578125 125.644531 C 335.851562 109.679688 333.3125 98.777344 329.605469 89.234375 C 325.773438 79.371094 320.644531 71.007812 312.304688 62.667969 C 303.96875 54.328125 295.605469 49.199219 285.738281 45.367188 C 276.195312 41.660156 265.292969 39.125 249.328125 38.394531 C 233.332031 37.664062 228.222656 37.492188 187.488281 37.492188 Z M 187.488281 37.492188 " fill-opacity="1" fill-rule="nonzero"/></g><path fill="#ffffff" d="M 187.488281 110.464844 C 144.949219 110.464844 110.464844 144.949219 110.464844 187.488281 C 110.464844 230.023438 144.949219 264.511719 187.488281 264.511719 C 230.023438 264.511719 264.511719 230.023438 264.511719 187.488281 C 264.511719 144.949219 230.023438 110.464844 187.488281 110.464844 Z M 187.488281 237.484375 C 159.871094 237.484375 137.488281 215.101562 137.488281 187.488281 C 137.488281 159.871094 159.871094 137.488281 187.488281 137.488281 C 215.101562 137.488281 237.484375 159.871094 237.484375 187.488281 C 237.484375 215.101562 215.101562 237.484375 187.488281 237.484375 Z M 187.488281 237.484375 " fill-opacity="1" fill-rule="nonzero"/><path fill="#ffffff" d="M 285.554688 107.417969 C 285.554688 108.007812 285.527344 108.597656 285.46875 109.183594 C 285.410156 109.769531 285.324219 110.351562 285.210938 110.929688 C 285.09375 111.507812 284.953125 112.078125 284.78125 112.644531 C 284.609375 113.207031 284.410156 113.761719 284.183594 114.308594 C 283.960938 114.851562 283.707031 115.382812 283.429688 115.902344 C 283.152344 116.425781 282.847656 116.929688 282.523438 117.417969 C 282.195312 117.910156 281.84375 118.382812 281.46875 118.839844 C 281.09375 119.292969 280.699219 119.730469 280.28125 120.148438 C 279.867188 120.5625 279.429688 120.960938 278.972656 121.332031 C 278.519531 121.707031 278.046875 122.058594 277.554688 122.386719 C 277.066406 122.714844 276.558594 123.015625 276.039062 123.292969 C 275.519531 123.570312 274.988281 123.824219 274.441406 124.050781 C 273.898438 124.273438 273.34375 124.472656 272.78125 124.644531 C 272.214844 124.816406 271.644531 124.957031 271.066406 125.074219 C 270.488281 125.1875 269.90625 125.273438 269.320312 125.332031 C 268.734375 125.390625 268.144531 125.417969 267.554688 125.417969 C 266.964844 125.417969 266.378906 125.390625 265.789062 125.332031 C 265.203125 125.273438 264.621094 125.1875 264.042969 125.074219 C 263.464844 124.957031 262.894531 124.816406 262.328125 124.644531 C 261.765625 124.472656 261.210938 124.273438 260.667969 124.050781 C 260.121094 123.824219 259.589844 123.570312 259.070312 123.292969 C 258.550781 123.015625 258.042969 122.714844 257.554688 122.386719 C 257.0625 122.058594 256.589844 121.707031 256.136719 121.332031 C 255.679688 120.960938 255.242188 120.5625 254.828125 120.148438 C 254.410156 119.730469 254.015625 119.292969 253.640625 118.839844 C 253.265625 118.382812 252.914062 117.910156 252.589844 117.417969 C 252.261719 116.929688 251.957031 116.425781 251.679688 115.902344 C 251.402344 115.382812 251.148438 114.851562 250.925781 114.308594 C 250.699219 113.761719 250.5 113.207031 250.328125 112.644531 C 250.160156 112.078125 250.015625 111.507812 249.898438 110.929688 C 249.785156 110.351562 249.699219 109.769531 249.640625 109.183594 C 249.582031 108.597656 249.554688 108.007812 249.554688 107.417969 C 249.554688 106.828125 249.582031 106.242188 249.640625 105.652344 C 249.699219 105.066406 249.785156 104.484375 249.898438 103.90625 C 250.015625 103.328125 250.160156 102.757812 250.328125 102.191406 C 250.5 101.628906 250.699219 101.074219 250.925781 100.53125 C 251.148438 99.984375 251.402344 99.453125 251.679688 98.933594 C 251.957031 98.414062 252.261719 97.90625 252.589844 97.417969 C 252.914062 96.929688 253.265625 96.453125 253.640625 96 C 254.015625 95.542969 254.410156 95.105469 254.828125 94.691406 C 255.242188 94.273438 255.679688 93.878906 256.136719 93.503906 C 256.589844 93.128906 257.0625 92.777344 257.554688 92.453125 C 258.042969 92.125 258.550781 91.820312 259.070312 91.542969 C 259.589844 91.265625 260.121094 91.015625 260.667969 90.789062 C 261.210938 90.5625 261.765625 90.363281 262.328125 90.191406 C 262.894531 90.023438 263.464844 89.878906 264.042969 89.765625 C 264.621094 89.648438 265.203125 89.5625 265.789062 89.503906 C 266.378906 89.445312 266.964844 89.417969 267.554688 89.417969 C 268.144531 89.417969 268.734375 89.445312 269.320312 89.503906 C 269.90625 89.5625 270.488281 89.648438 271.066406 89.765625 C 271.644531 89.878906 272.214844 90.023438 272.78125 90.191406 C 273.34375 90.363281 273.898438 90.5625 274.441406 90.789062 C 274.988281 91.015625 275.519531 91.265625 276.039062 91.542969 C 276.558594 91.820312 277.066406 92.125 277.554688 92.453125 C 278.046875 92.777344 278.519531 93.128906 278.972656 93.503906 C 279.429688 93.878906 279.867188 94.273438 280.28125 94.691406 C 280.699219 95.105469 281.09375 95.542969 281.46875 96 C 281.84375 96.453125 282.195312 96.929688 282.523438 97.417969 C 282.847656 97.90625 283.152344 98.414062 283.429688 98.933594 C 283.707031 99.453125 283.960938 99.984375 284.183594 100.53125 C 284.410156 101.074219 284.609375 101.628906 284.78125 102.191406 C 284.953125 102.757812 285.09375 103.328125 285.210938 103.90625 C 285.324219 104.484375 285.410156 105.066406 285.46875 105.652344 C 285.527344 106.242188 285.554688 106.828125 285.554688 107.417969 Z M 285.554688 107.417969 " fill-opacity="1" fill-rule="nonzero"/></svg>