<svg xmlns="http://www.w3.org/2000/svg" xmlns:xlink="http://www.w3.org/1999/xlink" width="500" zoomAndPan="magnify" viewBox="0 0 375 374.999991" height="500" preserveAspectRatio="xMidYMid meet" version="1.0"><rect x="-37.5" width="450" fill="#ffffff" y="-37.499999" height="449.999989" fill-opacity="1"/><rect x="-37.5" width="450" fill="#001433" y="-37.499999" height="449.999989" fill-opacity="1"/><path fill="#ffffff" d="M 55.402344 73.015625 L 55.402344 301.976562 C 55.402344 311.664062 63.328125 319.589844 73.015625 319.589844 L 301.976562 319.589844 C 311.664062 319.589844 319.589844 311.664062 319.589844 301.976562 L 319.589844 73.015625 C 319.589844 63.328125 311.664062 55.402344 301.976562 55.402344 L 73.015625 55.402344 C 63.328125 55.402344 55.402344 63.328125 55.402344 73.015625 Z M 130.695312 275.558594 L 99.433594 275.558594 L 99.433594 154.03125 L 130.695312 154.03125 Z M 115.285156 129.816406 C 106.480469 129.816406 99.433594 123.210938 99.433594 114.84375 C 99.433594 106.480469 106.480469 99.875 115.285156 99.875 C 124.089844 99.875 131.136719 106.480469 131.136719 114.84375 C 130.695312 123.210938 123.652344 129.816406 115.285156 129.816406 Z M 275.558594 275.558594 L 244.296875 275.558594 L 244.296875 214.796875 C 244.296875 202.027344 243.855469 193.660156 242.535156 189.699219 C 241.214844 185.734375 239.011719 183.09375 236.371094 180.890625 C 233.289062 178.691406 229.765625 177.808594 225.804688 177.808594 C 220.519531 177.808594 215.675781 179.132812 211.714844 182.214844 C 207.3125 185.296875 204.667969 189.257812 202.90625 194.101562 C 201.148438 198.945312 200.707031 208.191406 200.707031 221.402344 L 200.707031 275.558594 L 162.839844 275.558594 L 162.839844 154.03125 L 194.101562 154.03125 L 194.101562 172.085938 C 204.667969 158.4375 218.320312 151.390625 234.609375 151.390625 C 241.65625 151.390625 248.261719 152.710938 254.425781 155.355469 C 260.148438 157.996094 264.992188 161.078125 268.074219 165.039062 C 271.15625 169.003906 273.359375 173.40625 274.238281 178.691406 C 275.558594 183.535156 276 191.019531 276 200.265625 L 276 275.558594 Z M 275.558594 275.558594 " fill-opacity="1" fill-rule="nonzero"/></svg>